<?xml version="1.0" standalone="no"?>
<!DOCTYPE svg PUBLIC "-//W3C//DTD SVG 20010904//EN"
 "http://www.w3.org/TR/2001/REC-SVG-20010904/DTD/svg10.dtd">
<svg version="1.0" xmlns="http://www.w3.org/2000/svg"
 width="130.000000pt" height="130.000000pt" viewBox="0 0 130.000000 130.000000"
 preserveAspectRatio="xMidYMid meet">
<metadata>
Created by potrace 1.11, written by Peter Selinger 2001-2013
</metadata>
<g transform="translate(0.000000,130.000000) scale(0.100000,-0.100000)"
fill="#000000" stroke="none">
<path d="M536 1200 l-91 -89 218 -219 c165 -165 217 -224 217 -243 0 -18 -52
-76 -215 -239 -118 -118 -215 -218 -215 -222 0 -11 153 -160 178 -173 13 -7
31 -11 41 -8 10 2 156 143 324 311 232 232 305 312 302 327 -2 11 -4 24 -4 29
-1 5 -138 145 -305 312 -251 251 -309 304 -331 304 -22 0 -49 -21 -119 -90z"/>
<path d="M172 857 c-155 -156 -172 -177 -172 -207 0 -30 18 -51 175 -209 l175
-176 180 180 c138 138 180 186 180 205 0 19 -41 67 -178 203 -97 97 -180 177
-182 177 -3 0 -83 -78 -178 -173z"/>
</g>
</svg>
