<svg xmlns="http://www.w3.org/2000/svg" width="4063.55" height="2745.8" viewBox="0 0 4063.55 2745.8"><defs><style>.cls-1{fill:#fff;}.cls-2{fill:#4c586e;}.cls-3{fill:#343d4d;}.cls-4{fill:#1e1e1e;}.cls-5{fill:#c58e8e;}.cls-6{fill:#4c6e87;}.cls-7{fill:#e9c4be;}.cls-8{fill:#92e661;}.cls-9{fill:#6cec57;}.cls-10{fill:#e9dc77;}.cls-11{fill:#9afa85;}.cls-12{fill:#f45784;}.cls-13{fill:#9de665;}.cls-14{fill:#e8ef9a;}.cls-15{fill:#e187b6;}.cls-16{fill:#ecbee4;}</style></defs><title>laptop</title><g id="laptop"><rect class="cls-1" x="320.8" y="381.82" width="3405.39" height="2194.93" rx="12" ry="12"/><path class="cls-2" d="M4260.69,1561.46c0-82.35-67.38-149.74-149.74-149.74H891.76c-82.35,0-149.73,67.38-149.73,149.74V3696.93H2249.55v34.54h542.79v-34.54H4260.69ZM4172,3645.66H822.3V1546.83a52.22,52.22,0,0,1,52.41-52H4119.58a52.22,52.22,0,0,1,52.41,52Z" transform="translate(-468.22 -1070.97)"/><path class="cls-3" d="M2263,3695.91v17.83c0,7.31,10.06,13.23,22.46,13.23h470.92c12.4,0,22.46-5.93,22.46-13.23v-17.83H4530.41l1.37,68.69c0,28.82-39.64,52.17-88.55,52.17H558.17c-48.92,0-88.57-23.37-88.57-52.19l-1.37-68.67Z" transform="translate(-468.22 -1070.97)"/><circle class="cls-4" cx="2054.44" cy="381.82" r="15.01"/></g><g id="code"><path class="cls-5" d="M669.67,0H3386.42a100,100,0,0,1,100,100v8.17a0,0,0,0,1,0,0H569.67a0,0,0,0,1,0,0V100A100,100,0,0,1,669.67,0Z"/><circle class="cls-6" cx="682.47" cy="57.47" r="20.64"/><circle class="cls-6" cx="749.11" cy="57.47" r="20.64"/><circle class="cls-6" cx="815.75" cy="57.47" r="20.64"/><path class="cls-6" d="M569.67,108.17H3486.42a0,0,0,0,1,0,0V2263a100,100,0,0,1-100,100H669.67a100,100,0,0,1-100-100V108.17a0,0,0,0,1,0,0Z"/><path class="cls-7" d="M1239.74,1319.62h-22.41v-4.69h8.33v-30.81h-8.33v-4.2q4.72,0,7-1.34t2.52-5.08h4.78v41.42h8.15Z" transform="translate(-468.22 -1070.97)"/><path class="cls-7" d="M1276.81,1296.62q0,12.38-3.6,18.17t-11.09,5.79q-7.59,0-11.14-5.9t-3.55-18q0-12.44,3.6-18.2t11.1-5.76q7.59,0,11.14,6T1276.81,1296.62Zm-7.9,14a22.53,22.53,0,0,0,1.26-5.77,91.5,91.5,0,0,0,0-16.45,22,22,0,0,0-1.3-5.8,8,8,0,0,0-2.55-3.56,6.81,6.81,0,0,0-4.21-1.22,6.9,6.9,0,0,0-4.21,1.22,8.05,8.05,0,0,0-2.61,3.62,22,22,0,0,0-1.27,5.93q-.34,3.58-.34,8.09,0,4.82.29,8.06a21.5,21.5,0,0,0,1.28,5.8,8.12,8.12,0,0,0,2.55,3.66,7.89,7.89,0,0,0,8.52.06A7.87,7.87,0,0,0,1268.91,1310.63Z" transform="translate(-468.22 -1070.97)"/><path class="cls-7" d="M1239.74,1414.62h-22.41v-4.69h8.33v-30.81h-8.33v-4.2q4.72,0,7-1.34t2.52-5.08h4.78v41.42h8.15Z" transform="translate(-468.22 -1070.97)"/><path class="cls-7" d="M1274.25,1414.62h-22.41v-4.69h8.33v-30.81h-8.33v-4.2q4.72,0,7-1.34t2.52-5.08h4.78v41.42h8.15Z" transform="translate(-468.22 -1070.97)"/><path class="cls-7" d="M1239.74,1509.63h-22.41v-4.69h8.33v-30.81h-8.33v-4.2q4.72,0,7-1.34t2.52-5.08h4.78v41.42h8.15Z" transform="translate(-468.22 -1070.97)"/><path class="cls-7" d="M1276.6,1509.63h-28.37v-6.45q3.05-2.9,5.77-5.56t5.31-5.53a54.31,54.31,0,0,0,7.16-9.24,14.69,14.69,0,0,0,1.91-7.18,8.7,8.7,0,0,0-.6-3.36,6.61,6.61,0,0,0-1.65-2.41,7.24,7.24,0,0,0-2.5-1.39,10,10,0,0,0-3.12-.46,13.78,13.78,0,0,0-3.32.42,24.52,24.52,0,0,0-3.23,1,16.84,16.84,0,0,0-2.5,1.27q-1.2.74-1.94,1.26h-.34v-6.54a29.11,29.11,0,0,1,5.33-1.87,25.1,25.1,0,0,1,6.46-.91q6.42,0,10.06,3.41a12.05,12.05,0,0,1,3.64,9.24,18.62,18.62,0,0,1-.63,5,18.41,18.41,0,0,1-1.74,4.23,29.34,29.34,0,0,1-2.75,4q-1.61,2-3.4,3.89-2.9,3.15-6.47,6.54t-5.69,5.37h22.59Z" transform="translate(-468.22 -1070.97)"/><path class="cls-7" d="M1239.74,1604.63h-22.41v-4.69h8.33v-30.81h-8.33v-4.2q4.72,0,7-1.34t2.52-5.08h4.78v41.42h8.15Z" transform="translate(-468.22 -1070.97)"/><path class="cls-7" d="M1260.64,1563.06a14.14,14.14,0,0,0-3.33.4,23.35,23.35,0,0,0-3.27,1,18.66,18.66,0,0,0-2.58,1.3c-.73.45-1.38.88-2,1.27h-.37v-6.51a24.61,24.61,0,0,1,5.45-2,26.48,26.48,0,0,1,6.56-.88,21,21,0,0,1,5.45.63,13.32,13.32,0,0,1,4.21,2,9.72,9.72,0,0,1,3.07,3.58,11,11,0,0,1,1,4.91,9.84,9.84,0,0,1-2.5,6.67,10.93,10.93,0,0,1-6,3.64v.43a16.26,16.26,0,0,1,3.1,1,10.18,10.18,0,0,1,3.07,2,10,10,0,0,1,2.31,3.41,12.86,12.86,0,0,1,.9,5.08,15,15,0,0,1-1.07,5.73,14.37,14.37,0,0,1-3,4.62,13,13,0,0,1-4.85,3.18,18.09,18.09,0,0,1-6.45,1.08,28.56,28.56,0,0,1-6.85-.83,26.8,26.8,0,0,1-5.71-2v-6.51h.43a23.78,23.78,0,0,0,5.22,2.71,17.6,17.6,0,0,0,6.54,1.3,12.51,12.51,0,0,0,3.78-.6,7.24,7.24,0,0,0,3.16-2,9.78,9.78,0,0,0,1.88-3,11.33,11.33,0,0,0,.65-4.14,10,10,0,0,0-.73-4.1,6.14,6.14,0,0,0-2-2.53,7.87,7.87,0,0,0-3.07-1.28,19.6,19.6,0,0,0-3.84-.36h-2.62v-5.12h2a10.93,10.93,0,0,0,6.77-2,6.76,6.76,0,0,0,2.61-5.74,6.16,6.16,0,0,0-.68-3,5.76,5.76,0,0,0-1.73-2,7.33,7.33,0,0,0-2.59-1.11A14.3,14.3,0,0,0,1260.64,1563.06Z" transform="translate(-468.22 -1070.97)"/><path class="cls-7" d="M1239.74,1699.64h-22.41v-4.69h8.33v-30.81h-8.33v-4.2q4.72,0,7-1.34t2.52-5.08h4.78v41.42h8.15Z" transform="translate(-468.22 -1070.97)"/><path class="cls-7" d="M1277.8,1683.83h-5.46v15.8h-5.93v-15.8H1246.1v-6.48l20.56-23.67h5.68v25.22h5.46Zm-11.39-4.94v-18l-15.49,18Z" transform="translate(-468.22 -1070.97)"/><path class="cls-7" d="M1239.74,1794.64h-22.41V1790h8.33v-30.81h-8.33v-4.2q4.72,0,7-1.34t2.52-5.08h4.78V1790h8.15Z" transform="translate(-468.22 -1070.97)"/><path class="cls-7" d="M1276.07,1780a17.47,17.47,0,0,1-1.06,6.17,14.79,14.79,0,0,1-3,4.91,13.62,13.62,0,0,1-4.83,3.3,16.64,16.64,0,0,1-6.46,1.21,29.33,29.33,0,0,1-6.5-.73,24.61,24.61,0,0,1-5.54-1.9v-6.51h.43a14.43,14.43,0,0,0,2,1.19,28.2,28.2,0,0,0,2.93,1.25,30.93,30.93,0,0,0,3.33,1,14.78,14.78,0,0,0,3.4.36,10.2,10.2,0,0,0,3.61-.66,7.34,7.34,0,0,0,3-2.15,9.57,9.57,0,0,0,1.74-3.18,13.74,13.74,0,0,0,.6-4.29,10.45,10.45,0,0,0-.66-4,6.53,6.53,0,0,0-1.93-2.59,7.56,7.56,0,0,0-3.26-1.65,17.8,17.8,0,0,0-4.3-.48,33.44,33.44,0,0,0-5,.39q-2.53.39-4,.73v-23.67h25.22v5.4h-19.26v12.22q1.11-.12,2.19-.18c.72,0,1.38-.06,2-.06a25.87,25.87,0,0,1,6,.59,12.76,12.76,0,0,1,4.69,2.28,11.46,11.46,0,0,1,3.5,4.32A16,16,0,0,1,1276.07,1780Z" transform="translate(-468.22 -1070.97)"/><path class="cls-7" d="M1239.74,1889.65h-22.41V1885h8.33v-30.81h-8.33V1850q4.72,0,7-1.34t2.52-5.08h4.78V1885h8.15Z" transform="translate(-468.22 -1070.97)"/><path class="cls-7" d="M1277.3,1874.74a17.79,17.79,0,0,1-1.17,6.54,14.63,14.63,0,0,1-3.15,5,13.76,13.76,0,0,1-10.28,4.32,14.71,14.71,0,0,1-5.66-1.05,12.76,12.76,0,0,1-4.49-3.12,17.15,17.15,0,0,1-3.72-6.68,34.1,34.1,0,0,1-1.34-10.29,43.72,43.72,0,0,1,1.24-10.82,24.87,24.87,0,0,1,3.8-8.41,17.22,17.22,0,0,1,6.45-5.45,20.3,20.3,0,0,1,9.14-2,25.05,25.05,0,0,1,2.87.15,11.79,11.79,0,0,1,2.35.49v5.9H1273a10.17,10.17,0,0,0-2.41-.85,14.12,14.12,0,0,0-3.37-.38A12,12,0,0,0,1258,1852q-3.54,3.87-4.18,11.5a19,19,0,0,1,4.51-2.38,14.87,14.87,0,0,1,5.06-.83,18.39,18.39,0,0,1,4.71.54,12.66,12.66,0,0,1,4.21,2.18,11.63,11.63,0,0,1,3.77,4.85A17.65,17.65,0,0,1,1277.3,1874.74Zm-6.27.25a13.27,13.27,0,0,0-.74-4.76,7.83,7.83,0,0,0-2.41-3.27,6.2,6.2,0,0,0-2.73-1.3,15.9,15.9,0,0,0-3.13-.31,13.76,13.76,0,0,0-4.2.65,17.71,17.71,0,0,0-4,1.88c0,.45-.07.89-.09,1.31s0,1,0,1.59a25.91,25.91,0,0,0,.94,7.72A12,12,0,0,0,1257,1883a7.88,7.88,0,0,0,2.73,2,7.8,7.8,0,0,0,3,.59,7.56,7.56,0,0,0,6-2.65Q1271,1880.27,1271,1875Z" transform="translate(-468.22 -1070.97)"/><path class="cls-7" d="M1239.74,1984.66h-22.41V1980h8.33v-30.81h-8.33V1945q4.72,0,7-1.34t2.52-5.08h4.78V1980h8.15Z" transform="translate(-468.22 -1070.97)"/><path class="cls-7" d="M1277.09,1945.58l-19.88,39.08h-6.57l21.05-40.56h-23.77v-5.4h29.17Z" transform="translate(-468.22 -1070.97)"/><path class="cls-7" d="M1239.74,2079.66h-22.41V2075h8.33v-30.81h-8.33V2040q4.72,0,7-1.34t2.52-5.08h4.78V2075h8.15Z" transform="translate(-468.22 -1070.97)"/><path class="cls-7" d="M1262.12,2080.71a18.2,18.2,0,0,1-6.24-1,13.28,13.28,0,0,1-4.78-2.93,12.15,12.15,0,0,1-2.95-4.4,14.52,14.52,0,0,1-1-5.39,12.55,12.55,0,0,1,2-6.87,13.85,13.85,0,0,1,5.79-5v-.18a15.48,15.48,0,0,1-5-4.32,10,10,0,0,1-1.63-5.86,11,11,0,0,1,3.92-8.64,14.47,14.47,0,0,1,9.94-3.46q6.26,0,10,3.29a10.65,10.65,0,0,1,3.78,8.41,11.8,11.8,0,0,1-1.81,6.11,12.26,12.26,0,0,1-5.2,4.72v.19a16.1,16.1,0,0,1,6.08,4.57,11,11,0,0,1,2.07,6.91,13,13,0,0,1-4.28,9.88A15.09,15.09,0,0,1,1262.12,2080.71Zm8.64-13.27a8,8,0,0,0-1.11-4.51,12,12,0,0,0-4.29-3.4,22.86,22.86,0,0,0-2.79-1.26q-1.74-.68-3.93-1.61a11.76,11.76,0,0,0-3.92,4.18,11.62,11.62,0,0,0-1.36,5.66,9.73,9.73,0,0,0,2.52,6.88,8.24,8.24,0,0,0,6.31,2.71,8.45,8.45,0,0,0,6.24-2.33A8.54,8.54,0,0,0,1270.76,2067.44Zm-.86-23a7,7,0,0,0-2.07-5.15,7.77,7.77,0,0,0-5.74-2.07,8.13,8.13,0,0,0-5.51,1.85,6.27,6.27,0,0,0-2.14,5,6.58,6.58,0,0,0,1.1,3.86,10,10,0,0,0,3.29,2.84q1,.52,2.92,1.45a31.18,31.18,0,0,0,3.57,1.45,11.4,11.4,0,0,0,3.64-4.25A12.25,12.25,0,0,0,1269.9,2044.41Z" transform="translate(-468.22 -1070.97)"/><path class="cls-7" d="M1239.74,2174.67h-22.41V2170h8.33v-30.81h-8.33V2135q4.72,0,7-1.34t2.52-5.08h4.78V2170h8.15Z" transform="translate(-468.22 -1070.97)"/><path class="cls-7" d="M1246.93,2143.65a17.53,17.53,0,0,1,1.16-6.48,15.69,15.69,0,0,1,3.17-5.06,13.28,13.28,0,0,1,4.68-3.18,14.54,14.54,0,0,1,5.6-1.14,15,15,0,0,1,5.76,1.06,12.71,12.71,0,0,1,4.46,3.07,17.2,17.2,0,0,1,3.69,6.64,34.7,34.7,0,0,1,1.31,10.37,44.26,44.26,0,0,1-1.28,10.82,23.69,23.69,0,0,1-3.78,8.47,18,18,0,0,1-6.37,5.46,20.22,20.22,0,0,1-9.18,1.88q-1.24,0-2.62-.14a13.4,13.4,0,0,1-2.6-.51V2169h.31a10.16,10.16,0,0,0,2.41.83,14,14,0,0,0,3.33.4,11.93,11.93,0,0,0,9.51-4q3.46-4,3.92-11.39a20.39,20.39,0,0,1-4.71,2.44,14.82,14.82,0,0,1-4.86.77,18.17,18.17,0,0,1-4.66-.55,12.36,12.36,0,0,1-4.23-2.16,11.9,11.9,0,0,1-3.73-4.77A17.27,17.27,0,0,1,1246.93,2143.65Zm23.61,3.95a27.88,27.88,0,0,0-.86-7.64,11.12,11.12,0,0,0-2.38-4.55,7.7,7.7,0,0,0-2.75-2,8.15,8.15,0,0,0-3.06-.56,7.45,7.45,0,0,0-6,2.72q-2.25,2.72-2.25,7.87a13.16,13.16,0,0,0,.74,4.78,7.85,7.85,0,0,0,2.41,3.24,6.24,6.24,0,0,0,2.66,1.28,15.56,15.56,0,0,0,11.42-2.21c0-.31,0-.71.08-1.22S1270.54,2148.21,1270.54,2147.6Z" transform="translate(-468.22 -1070.97)"/><path class="cls-7" d="M1242.09,2269.67h-28.37v-6.45q3.05-2.9,5.77-5.56t5.31-5.53a54.25,54.25,0,0,0,7.16-9.24,14.69,14.69,0,0,0,1.91-7.18,8.7,8.7,0,0,0-.6-3.36,6.61,6.61,0,0,0-1.65-2.41,7.25,7.25,0,0,0-2.5-1.39,10,10,0,0,0-3.12-.46,13.78,13.78,0,0,0-3.32.42,24.51,24.51,0,0,0-3.23,1,16.86,16.86,0,0,0-2.5,1.27q-1.2.74-1.94,1.26h-.34v-6.54a29,29,0,0,1,5.33-1.87,25.09,25.09,0,0,1,6.46-.91q6.42,0,10.06,3.41a12.05,12.05,0,0,1,3.64,9.24,18.62,18.62,0,0,1-.63,5,18.43,18.43,0,0,1-1.74,4.23,29.4,29.4,0,0,1-2.75,4q-1.61,2-3.39,3.89-2.9,3.15-6.47,6.54t-5.69,5.37h22.59Z" transform="translate(-468.22 -1070.97)"/><path class="cls-7" d="M1276.81,2246.68q0,12.38-3.6,18.16t-11.09,5.79q-7.59,0-11.14-5.9t-3.55-18q0-12.44,3.6-18.2t11.1-5.76q7.59,0,11.14,6T1276.81,2246.68Zm-7.9,14a22.53,22.53,0,0,0,1.26-5.77,91.5,91.5,0,0,0,0-16.45,22,22,0,0,0-1.3-5.8,8,8,0,0,0-2.55-3.56,6.81,6.81,0,0,0-4.21-1.22,6.9,6.9,0,0,0-4.21,1.22,8.05,8.05,0,0,0-2.61,3.62,22,22,0,0,0-1.27,5.93q-.34,3.58-.34,8.09,0,4.82.29,8.06a21.5,21.5,0,0,0,1.28,5.8,8.12,8.12,0,0,0,2.55,3.66,7.89,7.89,0,0,0,8.52.06A7.87,7.87,0,0,0,1268.91,2260.69Z" transform="translate(-468.22 -1070.97)"/><path class="cls-7" d="M1242.09,2364.68h-28.37v-6.45q3.05-2.9,5.77-5.56t5.31-5.53a54.25,54.25,0,0,0,7.16-9.24,14.69,14.69,0,0,0,1.91-7.18,8.7,8.7,0,0,0-.6-3.36,6.61,6.61,0,0,0-1.65-2.41,7.25,7.25,0,0,0-2.5-1.39,10,10,0,0,0-3.12-.46,13.78,13.78,0,0,0-3.32.42,24.51,24.51,0,0,0-3.23,1,16.86,16.86,0,0,0-2.5,1.27q-1.2.74-1.94,1.26h-.34v-6.54a29.12,29.12,0,0,1,5.33-1.87,25.09,25.09,0,0,1,6.46-.91q6.42,0,10.06,3.41a12.05,12.05,0,0,1,3.64,9.24,18.62,18.62,0,0,1-.63,5,18.42,18.42,0,0,1-1.74,4.23,29.38,29.38,0,0,1-2.75,4q-1.61,2-3.39,3.89-2.9,3.15-6.47,6.54t-5.69,5.37h22.59Z" transform="translate(-468.22 -1070.97)"/><path class="cls-7" d="M1274.25,2364.68h-22.41V2360h8.33v-30.81h-8.33V2325q4.72,0,7-1.34t2.52-5.08h4.78V2360h8.15Z" transform="translate(-468.22 -1070.97)"/><path class="cls-7" d="M1242.09,2459.68h-28.37v-6.45q3.05-2.91,5.77-5.56t5.31-5.53a54.07,54.07,0,0,0,7.16-9.25,14.66,14.66,0,0,0,1.91-7.18,8.7,8.7,0,0,0-.6-3.36,6.6,6.6,0,0,0-1.65-2.41,7.26,7.26,0,0,0-2.5-1.39,10,10,0,0,0-3.12-.46,13.75,13.75,0,0,0-3.32.42,24.16,24.16,0,0,0-3.23,1,16.64,16.64,0,0,0-2.5,1.27q-1.2.74-1.94,1.26h-.34v-6.54a29.07,29.07,0,0,1,5.33-1.87,25.18,25.18,0,0,1,6.46-.91q6.42,0,10.06,3.41a12.05,12.05,0,0,1,3.64,9.24,18.68,18.68,0,0,1-.63,5,18.44,18.44,0,0,1-1.74,4.22,29.4,29.4,0,0,1-2.75,4q-1.61,2-3.39,3.89-2.9,3.14-6.47,6.54t-5.69,5.37h22.59Z" transform="translate(-468.22 -1070.97)"/><path class="cls-7" d="M1276.6,2459.68h-28.37v-6.45q3.05-2.91,5.77-5.56t5.31-5.53a54.11,54.11,0,0,0,7.16-9.25,14.66,14.66,0,0,0,1.91-7.18,8.7,8.7,0,0,0-.6-3.36,6.6,6.6,0,0,0-1.65-2.41,7.25,7.25,0,0,0-2.5-1.39,10,10,0,0,0-3.12-.46,13.75,13.75,0,0,0-3.32.42,24.16,24.16,0,0,0-3.23,1,16.62,16.62,0,0,0-2.5,1.27q-1.2.74-1.94,1.26h-.34v-6.54a29.06,29.06,0,0,1,5.33-1.87,25.18,25.18,0,0,1,6.46-.91q6.42,0,10.06,3.41a12.05,12.05,0,0,1,3.64,9.24,18.68,18.68,0,0,1-.63,5,18.43,18.43,0,0,1-1.74,4.22,29.39,29.39,0,0,1-2.75,4q-1.61,2-3.4,3.89-2.9,3.14-6.47,6.54t-5.69,5.37h22.59Z" transform="translate(-468.22 -1070.97)"/><path class="cls-7" d="M1242.09,2554.69h-28.37v-6.45q3.05-2.91,5.77-5.56t5.31-5.53a54.25,54.25,0,0,0,7.16-9.25,14.68,14.68,0,0,0,1.91-7.17,8.71,8.71,0,0,0-.6-3.37,6.66,6.66,0,0,0-1.65-2.41,7.33,7.33,0,0,0-2.5-1.39,10,10,0,0,0-3.12-.46,13.75,13.75,0,0,0-3.32.42,24.82,24.82,0,0,0-3.23,1,17,17,0,0,0-2.5,1.26q-1.2.74-1.94,1.27h-.34v-6.54a29.43,29.43,0,0,1,5.33-1.87,25.18,25.18,0,0,1,6.46-.91q6.42,0,10.06,3.41a12.06,12.06,0,0,1,3.64,9.25,18.58,18.58,0,0,1-.63,5,18.39,18.39,0,0,1-1.74,4.23,29.67,29.67,0,0,1-2.75,4q-1.61,2-3.39,3.89-2.9,3.14-6.47,6.54t-5.69,5.37h22.59Z" transform="translate(-468.22 -1070.97)"/><path class="cls-7" d="M1260.64,2513.11a14.4,14.4,0,0,0-3.33.4,23.38,23.38,0,0,0-3.27,1.05,18.66,18.66,0,0,0-2.58,1.3c-.73.45-1.38.88-2,1.27h-.37v-6.52a24.51,24.51,0,0,1,5.45-2,26.49,26.49,0,0,1,6.56-.88,21.05,21.05,0,0,1,5.45.63,13.37,13.37,0,0,1,4.21,2,9.72,9.72,0,0,1,3.07,3.58,11,11,0,0,1,1,4.91,9.85,9.85,0,0,1-2.5,6.67,11,11,0,0,1-6,3.64v.43a16.2,16.2,0,0,1,3.1,1,9.9,9.9,0,0,1,5.39,5.42,12.85,12.85,0,0,1,.9,5.08,15,15,0,0,1-1.07,5.73,14.34,14.34,0,0,1-3,4.62,13,13,0,0,1-4.85,3.18,18.09,18.09,0,0,1-6.45,1.08,28.68,28.68,0,0,1-6.85-.83,26.79,26.79,0,0,1-5.71-2v-6.51h.43a23.78,23.78,0,0,0,5.22,2.72,17.65,17.65,0,0,0,6.54,1.3,12.5,12.5,0,0,0,3.78-.6,7.22,7.22,0,0,0,3.16-2,9.77,9.77,0,0,0,1.88-3,11.35,11.35,0,0,0,.65-4.14,10,10,0,0,0-.73-4.1,6.12,6.12,0,0,0-2-2.53,7.84,7.84,0,0,0-3.07-1.28,19.64,19.64,0,0,0-3.84-.35h-2.62v-5.12h2a10.91,10.91,0,0,0,6.77-2,6.75,6.75,0,0,0,2.61-5.74,6.16,6.16,0,0,0-.68-3,5.79,5.79,0,0,0-1.73-2,7.33,7.33,0,0,0-2.59-1.11A14.29,14.29,0,0,0,1260.64,2513.11Z" transform="translate(-468.22 -1070.97)"/><path class="cls-7" d="M1242.09,2649.7h-28.37v-6.45q3.05-2.91,5.77-5.56t5.31-5.53a54.27,54.27,0,0,0,7.16-9.25,14.69,14.69,0,0,0,1.91-7.17,8.71,8.71,0,0,0-.6-3.37,6.66,6.66,0,0,0-1.65-2.41,7.32,7.32,0,0,0-2.5-1.39,10,10,0,0,0-3.12-.46,13.78,13.78,0,0,0-3.32.42,24.86,24.86,0,0,0-3.23,1,17.08,17.08,0,0,0-2.5,1.26q-1.2.74-1.94,1.27h-.34v-6.54a29.38,29.38,0,0,1,5.33-1.87,25.18,25.18,0,0,1,6.46-.91q6.42,0,10.06,3.41a12.06,12.06,0,0,1,3.64,9.25,18.17,18.17,0,0,1-2.38,9.2,29.67,29.67,0,0,1-2.75,4q-1.61,2-3.39,3.89-2.9,3.14-6.47,6.54t-5.69,5.37h22.59Z" transform="translate(-468.22 -1070.97)"/><path class="cls-7" d="M1277.8,2633.89h-5.46v15.8h-5.93v-15.8H1246.1v-6.48l20.56-23.67h5.68V2629h5.46Zm-11.39-4.94v-18l-15.49,18Z" transform="translate(-468.22 -1070.97)"/><path class="cls-7" d="M1242.09,2744.7h-28.37v-6.45q3.05-2.91,5.77-5.56t5.31-5.53a54.25,54.25,0,0,0,7.16-9.25,14.68,14.68,0,0,0,1.91-7.17,8.71,8.71,0,0,0-.6-3.37,6.66,6.66,0,0,0-1.65-2.41,7.32,7.32,0,0,0-2.5-1.39,10,10,0,0,0-3.12-.46,13.78,13.78,0,0,0-3.32.42,24.86,24.86,0,0,0-3.23,1,17.08,17.08,0,0,0-2.5,1.26q-1.2.74-1.94,1.27h-.34v-6.54a29.38,29.38,0,0,1,5.33-1.87,25.18,25.18,0,0,1,6.46-.91q6.42,0,10.06,3.41a12.06,12.06,0,0,1,3.64,9.25,18.17,18.17,0,0,1-2.38,9.2,29.7,29.7,0,0,1-2.75,4q-1.61,2-3.39,3.89-2.9,3.14-6.47,6.54t-5.69,5.37h22.59Z" transform="translate(-468.22 -1070.97)"/><path class="cls-7" d="M1276.07,2730.07a17.44,17.44,0,0,1-1.06,6.17,14.83,14.83,0,0,1-3,4.91,13.7,13.7,0,0,1-4.83,3.3,16.68,16.68,0,0,1-6.46,1.2,29.33,29.33,0,0,1-6.5-.72,24.49,24.49,0,0,1-5.54-1.9v-6.51h.43a14.66,14.66,0,0,0,2,1.19,28.59,28.59,0,0,0,2.93,1.25,31.41,31.41,0,0,0,3.33,1,14.93,14.93,0,0,0,3.4.36,10.09,10.09,0,0,0,3.61-.66,7.33,7.33,0,0,0,3-2.14,9.57,9.57,0,0,0,1.74-3.18,13.77,13.77,0,0,0,.6-4.29,10.44,10.44,0,0,0-.66-4,6.51,6.51,0,0,0-1.93-2.59,7.56,7.56,0,0,0-3.26-1.65,17.93,17.93,0,0,0-4.3-.48,33.68,33.68,0,0,0-5,.38q-2.53.39-4,.73v-23.67h25.22v5.4h-19.26v12.22c.74-.08,1.47-.15,2.19-.19s1.38-.06,2-.06a26.11,26.11,0,0,1,6,.59,12.73,12.73,0,0,1,4.69,2.29,11.45,11.45,0,0,1,3.5,4.32A16,16,0,0,1,1276.07,2730.07Z" transform="translate(-468.22 -1070.97)"/><path class="cls-7" d="M1242.09,2839.71h-28.37v-6.45q3.05-2.91,5.77-5.56t5.31-5.53a54.25,54.25,0,0,0,7.16-9.25,14.68,14.68,0,0,0,1.91-7.17,8.71,8.71,0,0,0-.6-3.37,6.66,6.66,0,0,0-1.65-2.41,7.32,7.32,0,0,0-2.5-1.39,10,10,0,0,0-3.12-.46,13.78,13.78,0,0,0-3.32.42,24.86,24.86,0,0,0-3.23,1,17.08,17.08,0,0,0-2.5,1.26q-1.2.74-1.94,1.27h-.34v-6.54a29.38,29.38,0,0,1,5.33-1.87,25.18,25.18,0,0,1,6.46-.91q6.42,0,10.06,3.41a12.06,12.06,0,0,1,3.64,9.25,18.17,18.17,0,0,1-2.38,9.2,29.7,29.7,0,0,1-2.75,4q-1.61,2-3.39,3.89-2.9,3.14-6.47,6.54t-5.69,5.37h22.59Z" transform="translate(-468.22 -1070.97)"/><path class="cls-7" d="M1277.3,2824.8a17.8,17.8,0,0,1-1.17,6.54,14.6,14.6,0,0,1-3.15,5,13.77,13.77,0,0,1-10.28,4.32,14.79,14.79,0,0,1-5.66-1,12.83,12.83,0,0,1-4.49-3.12,17.13,17.13,0,0,1-3.72-6.68,34.12,34.12,0,0,1-1.34-10.3,43.7,43.7,0,0,1,1.24-10.82,24.91,24.91,0,0,1,3.8-8.41,17.26,17.26,0,0,1,6.45-5.45,20.33,20.33,0,0,1,9.14-2,25.49,25.49,0,0,1,2.87.15,11.78,11.78,0,0,1,2.35.5v5.89H1273a10,10,0,0,0-2.41-.85,14,14,0,0,0-3.37-.39,12,12,0,0,0-9.27,3.87q-3.54,3.87-4.18,11.5a18.87,18.87,0,0,1,4.51-2.38,14.86,14.86,0,0,1,5.06-.83,18.18,18.18,0,0,1,4.71.54,12.57,12.57,0,0,1,4.21,2.17,11.65,11.65,0,0,1,3.77,4.85A17.63,17.63,0,0,1,1277.3,2824.8Zm-6.27.25a13.27,13.27,0,0,0-.74-4.75,7.83,7.83,0,0,0-2.41-3.27,6.15,6.15,0,0,0-2.73-1.3,15.9,15.9,0,0,0-3.13-.31,13.76,13.76,0,0,0-4.2.65,17.71,17.71,0,0,0-4,1.88c0,.45-.07.89-.09,1.31s0,1,0,1.59a25.91,25.91,0,0,0,.94,7.72A11.9,11.9,0,0,0,1257,2833a7.89,7.89,0,0,0,2.73,2,7.8,7.8,0,0,0,3,.59,7.55,7.55,0,0,0,6-2.66Q1271,2830.33,1271,2825Z" transform="translate(-468.22 -1070.97)"/><path class="cls-7" d="M1242.09,2934.71h-28.37v-6.45q3.05-2.91,5.77-5.56t5.31-5.53a54.25,54.25,0,0,0,7.16-9.25,14.69,14.69,0,0,0,1.91-7.17,8.71,8.71,0,0,0-.6-3.37,6.66,6.66,0,0,0-1.65-2.41,7.33,7.33,0,0,0-2.5-1.39,10,10,0,0,0-3.12-.46,13.75,13.75,0,0,0-3.32.42,24.8,24.8,0,0,0-3.23,1,17,17,0,0,0-2.5,1.26q-1.2.74-1.94,1.27h-.34v-6.54a29.43,29.43,0,0,1,5.33-1.87,25.18,25.18,0,0,1,6.46-.91q6.42,0,10.06,3.41a12.06,12.06,0,0,1,3.64,9.25,18.58,18.58,0,0,1-.63,5,18.39,18.39,0,0,1-1.74,4.23,29.68,29.68,0,0,1-2.75,4q-1.61,2-3.39,3.89-2.9,3.14-6.47,6.54t-5.69,5.37h22.59Z" transform="translate(-468.22 -1070.97)"/><path class="cls-7" d="M1277.09,2895.64l-19.88,39.08h-6.57l21.05-40.56h-23.77v-5.4h29.17Z" transform="translate(-468.22 -1070.97)"/><path class="cls-7" d="M1242.09,3029.72h-28.37v-6.45q3.05-2.91,5.77-5.56t5.31-5.53a54.23,54.23,0,0,0,7.16-9.25,14.69,14.69,0,0,0,1.91-7.17,8.71,8.71,0,0,0-.6-3.37,6.66,6.66,0,0,0-1.65-2.41,7.33,7.33,0,0,0-2.5-1.39,10,10,0,0,0-3.12-.46,13.75,13.75,0,0,0-3.32.42,24.8,24.8,0,0,0-3.23,1,17,17,0,0,0-2.5,1.26q-1.2.74-1.94,1.27h-.34v-6.54a29.39,29.39,0,0,1,5.33-1.87,25.18,25.18,0,0,1,6.46-.91q6.42,0,10.06,3.41a12.06,12.06,0,0,1,3.64,9.25,18.58,18.58,0,0,1-.63,5,18.39,18.39,0,0,1-1.74,4.23,29.68,29.68,0,0,1-2.75,4q-1.61,2-3.39,3.89-2.9,3.14-6.47,6.54t-5.69,5.37h22.59Z" transform="translate(-468.22 -1070.97)"/><path class="cls-7" d="M1262.12,3030.77a18.2,18.2,0,0,1-6.24-1,13.27,13.27,0,0,1-4.78-2.93,12.12,12.12,0,0,1-2.95-4.4,14.51,14.51,0,0,1-1-5.39,12.54,12.54,0,0,1,2-6.87,13.8,13.8,0,0,1,5.79-5V3005a15.5,15.5,0,0,1-5-4.32,10,10,0,0,1-1.63-5.87,11,11,0,0,1,3.92-8.64,14.47,14.47,0,0,1,9.94-3.46q6.26,0,10,3.29a10.64,10.64,0,0,1,3.78,8.41,11.82,11.82,0,0,1-1.81,6.11,12.28,12.28,0,0,1-5.2,4.72v.19A16.15,16.15,0,0,1,1275,3010a11,11,0,0,1,2.07,6.91,13,13,0,0,1-4.28,9.88A15.08,15.08,0,0,1,1262.12,3030.77Zm8.64-13.28a8,8,0,0,0-1.11-4.5,12,12,0,0,0-4.29-3.4,22.51,22.51,0,0,0-2.79-1.26q-1.74-.68-3.93-1.61a11.77,11.77,0,0,0-3.92,4.18,11.64,11.64,0,0,0-1.36,5.67,9.72,9.72,0,0,0,2.52,6.88,8.25,8.25,0,0,0,6.31,2.72,8.06,8.06,0,0,0,8.58-8.68Zm-.86-23a7,7,0,0,0-2.07-5.16,7.77,7.77,0,0,0-5.74-2.07,8.12,8.12,0,0,0-5.51,1.86,6.26,6.26,0,0,0-2.14,5,6.56,6.56,0,0,0,1.1,3.86,10,10,0,0,0,3.29,2.84q1,.52,2.92,1.45a30.76,30.76,0,0,0,3.57,1.45,11.37,11.37,0,0,0,3.64-4.24A12.26,12.26,0,0,0,1269.9,2994.47Z" transform="translate(-468.22 -1070.97)"/><path class="cls-7" d="M1242.09,3124.72h-28.37v-6.45q3.05-2.91,5.77-5.56t5.31-5.53a54.25,54.25,0,0,0,7.16-9.25,14.68,14.68,0,0,0,1.91-7.17,8.71,8.71,0,0,0-.6-3.37,6.66,6.66,0,0,0-1.65-2.41,7.32,7.32,0,0,0-2.5-1.39,10,10,0,0,0-3.12-.46,13.78,13.78,0,0,0-3.32.42,24.89,24.89,0,0,0-3.23,1,17.09,17.09,0,0,0-2.5,1.26q-1.2.74-1.94,1.27h-.34v-6.54a29.39,29.39,0,0,1,5.33-1.87,25.18,25.18,0,0,1,6.46-.91q6.42,0,10.06,3.41a12.06,12.06,0,0,1,3.64,9.25,18.17,18.17,0,0,1-2.38,9.2,29.7,29.7,0,0,1-2.75,4q-1.61,2-3.39,3.89-2.9,3.14-6.47,6.54t-5.69,5.37h22.59Z" transform="translate(-468.22 -1070.97)"/><path class="cls-7" d="M1246.93,3093.7a17.53,17.53,0,0,1,1.16-6.48,15.67,15.67,0,0,1,3.17-5.06,13.22,13.22,0,0,1,4.68-3.18,14.57,14.57,0,0,1,5.6-1.14,14.94,14.94,0,0,1,5.76,1.06,12.7,12.7,0,0,1,4.46,3.07,17.22,17.22,0,0,1,3.69,6.64,34.7,34.7,0,0,1,1.31,10.37,44.29,44.29,0,0,1-1.28,10.82,23.77,23.77,0,0,1-3.78,8.47,18,18,0,0,1-6.37,5.46,20.19,20.19,0,0,1-9.18,1.88,25.55,25.55,0,0,1-2.62-.14,12.94,12.94,0,0,1-2.6-.51v-5.89h.31a10.1,10.1,0,0,0,2.41.83,13.9,13.9,0,0,0,3.33.4,11.92,11.92,0,0,0,9.51-4q3.46-4,3.92-11.39a20.46,20.46,0,0,1-4.71,2.44,14.83,14.83,0,0,1-4.86.77,18.08,18.08,0,0,1-4.66-.56,12.25,12.25,0,0,1-4.23-2.16,11.9,11.9,0,0,1-3.73-4.77A17.28,17.28,0,0,1,1246.93,3093.7Zm23.61,4a27.88,27.88,0,0,0-.86-7.64,11.12,11.12,0,0,0-2.38-4.55,7.77,7.77,0,0,0-2.75-2,8.19,8.19,0,0,0-3.06-.55,7.45,7.45,0,0,0-6,2.71q-2.25,2.72-2.25,7.87a13.17,13.17,0,0,0,.74,4.78,7.85,7.85,0,0,0,2.41,3.24,6.24,6.24,0,0,0,2.66,1.28,14.36,14.36,0,0,0,7.44-.37,14.92,14.92,0,0,0,4-1.84c0-.31,0-.71.08-1.22S1270.54,3098.27,1270.54,3097.66Z" transform="translate(-468.22 -1070.97)"/><path class="cls-7" d="M1226.13,3178.15a14.42,14.42,0,0,0-3.33.4,23.44,23.44,0,0,0-3.27,1.05,18.71,18.71,0,0,0-2.58,1.3q-1.09.68-2,1.27h-.37v-6.52a24.5,24.5,0,0,1,5.45-2,26.47,26.47,0,0,1,6.56-.88,21.07,21.07,0,0,1,5.45.63,13.38,13.38,0,0,1,4.21,2,9.72,9.72,0,0,1,3.07,3.58,11,11,0,0,1,1,4.91,9.85,9.85,0,0,1-2.5,6.67,10.94,10.94,0,0,1-6,3.64v.43a16.14,16.14,0,0,1,3.1,1,9.9,9.9,0,0,1,5.39,5.42,12.85,12.85,0,0,1,.9,5.08,15,15,0,0,1-1.07,5.73,14.34,14.34,0,0,1-3,4.62,13,13,0,0,1-4.85,3.18,18.08,18.08,0,0,1-6.45,1.08,28.66,28.66,0,0,1-6.85-.83,26.82,26.82,0,0,1-5.71-2v-6.51h.43a23.81,23.81,0,0,0,5.22,2.72,17.65,17.65,0,0,0,6.54,1.3,12.49,12.49,0,0,0,3.78-.6,7.22,7.22,0,0,0,3.16-2,9.77,9.77,0,0,0,1.88-3,11.33,11.33,0,0,0,.65-4.14,10,10,0,0,0-.73-4.1,6.12,6.12,0,0,0-2-2.53,7.85,7.85,0,0,0-3.07-1.28,19.63,19.63,0,0,0-3.84-.35h-2.62v-5.12h2a10.91,10.91,0,0,0,6.77-2,6.75,6.75,0,0,0,2.61-5.74,6.16,6.16,0,0,0-.68-3,5.78,5.78,0,0,0-1.73-2,7.32,7.32,0,0,0-2.59-1.11A14.29,14.29,0,0,0,1226.13,3178.15Z" transform="translate(-468.22 -1070.97)"/><path class="cls-7" d="M1276.81,3196.74q0,12.38-3.6,18.16t-11.09,5.79q-7.59,0-11.14-5.89t-3.55-18q0-12.44,3.6-18.19t11.1-5.76q7.59,0,11.14,6T1276.81,3196.74Zm-7.9,14a22.58,22.58,0,0,0,1.26-5.77,91.48,91.48,0,0,0,0-16.45,22,22,0,0,0-1.3-5.8,8,8,0,0,0-2.55-3.57,6.81,6.81,0,0,0-4.21-1.22,6.9,6.9,0,0,0-4.21,1.22,8.05,8.05,0,0,0-2.61,3.62,22,22,0,0,0-1.27,5.93q-.34,3.58-.34,8.09,0,4.82.29,8.06a21.53,21.53,0,0,0,1.28,5.8,8.12,8.12,0,0,0,2.55,3.66,6.82,6.82,0,0,0,4.31,1.28,6.89,6.89,0,0,0,4.21-1.22A7.85,7.85,0,0,0,1268.91,3210.75Z" transform="translate(-468.22 -1070.97)"/><path class="cls-7" d="M1226.13,3273.16a14.39,14.39,0,0,0-3.33.4,23.44,23.44,0,0,0-3.27,1.05,18.71,18.71,0,0,0-2.58,1.3q-1.09.68-2,1.27h-.37v-6.52a24.52,24.52,0,0,1,5.45-2,26.49,26.49,0,0,1,6.56-.88,21.07,21.07,0,0,1,5.45.63,13.38,13.38,0,0,1,4.21,2,9.72,9.72,0,0,1,3.07,3.58,11,11,0,0,1,1,4.91,9.85,9.85,0,0,1-2.5,6.67,10.94,10.94,0,0,1-6,3.64v.43a16.14,16.14,0,0,1,3.1,1,9.9,9.9,0,0,1,5.39,5.42,12.85,12.85,0,0,1,.9,5.08,15,15,0,0,1-1.07,5.73,14.34,14.34,0,0,1-3,4.62,13,13,0,0,1-4.85,3.18,18.08,18.08,0,0,1-6.45,1.08,28.66,28.66,0,0,1-6.85-.83,26.82,26.82,0,0,1-5.71-2v-6.51h.43a23.81,23.81,0,0,0,5.22,2.72,17.65,17.65,0,0,0,6.54,1.3,12.49,12.49,0,0,0,3.78-.6,7.22,7.22,0,0,0,3.16-2,9.77,9.77,0,0,0,1.88-3,11.33,11.33,0,0,0,.65-4.14,10,10,0,0,0-.73-4.1,6.12,6.12,0,0,0-2-2.53,7.85,7.85,0,0,0-3.07-1.28,19.63,19.63,0,0,0-3.84-.35h-2.62v-5.12h2a10.91,10.91,0,0,0,6.77-2,6.75,6.75,0,0,0,2.61-5.74,6.16,6.16,0,0,0-.68-3,5.78,5.78,0,0,0-1.73-2,7.32,7.32,0,0,0-2.59-1.11A14.26,14.26,0,0,0,1226.13,3273.16Z" transform="translate(-468.22 -1070.97)"/><path class="cls-7" d="M1274.25,3314.74h-22.41V3310h8.33v-30.8h-8.33V3275q4.72,0,7-1.34t2.52-5.08h4.78V3310h8.15Z" transform="translate(-468.22 -1070.97)"/><rect class="cls-8" x="940.81" y="219.75" width="474.85" height="10.02"/><rect class="cls-9" x="940.81" y="319.56" width="506.21" height="10.02"/><rect class="cls-8" x="1511.37" y="319.56" width="736.84" height="10.02"/><rect class="cls-8" x="940.81" y="508.88" width="340.41" height="10.02"/><rect class="cls-8" x="940.81" y="790.29" width="551.29" height="10.02"/><rect class="cls-10" x="1346.83" y="508.88" width="1579.02" height="10.02"/><rect class="cls-9" x="940.2" y="602.02" width="394.8" height="10.02"/><rect class="cls-8" x="1380.41" y="602.02" width="246.51" height="10.02"/><rect class="cls-11" x="1681.72" y="602.02" width="305.02" height="10.02"/><rect class="cls-10" x="2124.07" y="602.02" width="573.53" height="10.02"/><rect class="cls-9" x="940.2" y="887.38" width="341.02" height="10.02"/><rect class="cls-11" x="940.2" y="983.02" width="373.51" height="10.02"/><rect class="cls-10" x="1375.37" y="983.02" width="425.94" height="10.02"/><rect class="cls-12" x="1903.33" y="983.02" width="622.76" height="10.02"/><rect class="cls-11" x="940.2" y="1076.7" width="373.51" height="10.02"/><rect class="cls-9" x="940.2" y="1550.18" width="373.51" height="10.02"/><rect class="cls-13" x="1337.67" y="1550.18" width="250.67" height="10.02"/><rect class="cls-14" x="1645.39" y="1550.18" width="250.67" height="10.02"/><rect class="cls-9" x="940.2" y="2023.65" width="373.51" height="10.02"/><rect class="cls-13" x="1337.67" y="2023.65" width="250.67" height="10.02"/><rect class="cls-14" x="1645.39" y="2023.65" width="250.67" height="10.02"/><rect class="cls-15" x="940.2" y="1640.86" width="566.79" height="10.02"/><rect class="cls-14" x="1559.83" y="1640.86" width="459.07" height="10.02"/><rect class="cls-10" x="2085.73" y="1640.86" width="459.07" height="10.02"/><rect class="cls-15" x="940.2" y="1173.7" width="430.97" height="10.02"/><rect class="cls-13" x="940.2" y="1453.93" width="730.22" height="10.02"/><rect class="cls-10" x="1737.02" y="1453.93" width="281.87" height="10.02"/><rect class="cls-13" x="940.2" y="1932.99" width="730.22" height="10.02"/><rect class="cls-10" x="1737.02" y="1932.99" width="281.87" height="10.02"/><rect class="cls-16" x="940.2" y="1264.35" width="109.36" height="10.02"/><rect class="cls-16" x="940.2" y="1739.57" width="109.36" height="10.02"/><rect class="cls-15" x="940.2" y="2118.65" width="566.79" height="10.02"/><rect class="cls-14" x="1559.83" y="2118.65" width="897.85" height="10.02"/><rect class="cls-16" x="940.2" y="2217.36" width="109.36" height="10.02"/><rect class="cls-10" x="1428.39" y="1173.7" width="382.1" height="10.02"/><rect class="cls-10" x="1375.37" y="1076.7" width="556.74" height="10.02"/><rect class="cls-9" x="2000.85" y="1076.7" width="576.3" height="10.02"/><rect class="cls-8" x="1335" y="887.38" width="246.51" height="10.02"/><rect class="cls-14" x="1640.21" y="887.38" width="305.02" height="10.02"/><rect class="cls-11" x="2854" y="887.38" width="305.02" height="10.02"/><rect class="cls-8" x="1986.74" y="887.38" width="804.29" height="10.02"/><rect class="cls-9" x="2526.06" y="2118.65" width="804.29" height="10.02"/><polyline class="cls-11" points="2120.86 1940.78 2120.86 1930.77 2494.38 1930.77 2494.38 1940.78"/><rect class="cls-12" x="2556.03" y="1930.77" width="556.74" height="10.02"/></g></svg>