<svg id="Layer_1" data-name="Layer 1" xmlns="http://www.w3.org/2000/svg" width="208.55mm" height="40.78mm" viewBox="0 0 591.17 115.61"><defs><style>.cls-1,.cls-4{font-size:66.37px;}.cls-1,.cls-11,.cls-4,.cls-6{fill:#fff;}.cls-1{font-family:Raleway-Bold, Raleway;}.cls-1,.cls-6{font-weight:700;}.cls-2{letter-spacing:-0.02em;}.cls-3{letter-spacing:-0.03em;}.cls-4{font-family:RobotoCondensed-Light, Roboto Condensed Light;}.cls-5{letter-spacing:-0.05em;}.cls-6{font-size:29.45px;font-family:Raleway-SemiBold, Raleway;}.cls-7{letter-spacing:-0.02em;}.cls-8{letter-spacing:-0.03em;}.cls-9{letter-spacing:-0.02em;}.cls-10{letter-spacing:-0.03em;}</style></defs><title>logo-mono-white</title><text class="cls-1" transform="translate(92.57 62.09)">AI<tspan class="cls-2" x="63.59" y="0">Q</tspan><tspan class="cls-3" x="112.04" y="0">A</tspan></text><text class="cls-4" transform="translate(250.1 62.09)"><tspan class="cls-5">T</tspan><tspan x="31.37" y="0">echnologies</tspan></text><text class="cls-6" transform="translate(382.97 108.92)">AI p<tspan class="cls-7" x="53.66" y="0">ow</tspan><tspan x="94.71" y="0">e</tspan><tspan class="cls-8" x="112.23" y="0">r</tspan><tspan x="122.48" y="0">ed </tspan><tspan class="cls-9" x="166.03" y="0">Q</tspan><tspan class="cls-10" x="187.38" y="0">A</tspan></text><path class="cls-11" d="M128.2,184.74l-35.3-35.3a3.82,3.82,0,0,0-5.39,0l-9.92,9.89L103,184.71a3.82,3.82,0,0,1,0,5.39h0L77.59,215.52l9.89,9.89a3.82,3.82,0,0,0,5.39,0l35.3-35.3a3.75,3.75,0,0,0,0-5.36Z" transform="translate(-50.44 -148.32)"/><path class="cls-11" d="M92.87,185.09,71.79,164,61.13,174.64l.06.06-9.33,9.36a4.88,4.88,0,0,0,0,6.88h0l9.21,9.21-.09.09L71.6,210.87l21.23-21.23a3.17,3.17,0,0,0,0-4.56Z" transform="translate(-50.44 -148.32)"/></svg>